<?xml version="1.0" standalone="no"?>
<!DOCTYPE svg PUBLIC "-//W3C//DTD SVG 20010904//EN"
 "http://www.w3.org/TR/2001/REC-SVG-20010904/DTD/svg10.dtd">
<svg version="1.0" xmlns="http://www.w3.org/2000/svg"
 width="705.000000pt" height="594.000000pt" viewBox="0 0 505.000000 494.000000"
 preserveAspectRatio="xMidYMid meet">

<g transform="translate(0.000000,494.000000) scale(0.100000,-0.100000)"
fill="#000000" stroke="none">
<path d="M2265 4496 c-23 -7 -39 -18 -37 -25 9 -43 -56 -85 -95 -60 -16 9 -45
-2 -183 -71 -91 -46 -266 -130 -390 -187 -228 -105 -267 -129 -272 -167 -2
-16 -49 -48 -188 -127 -223 -129 -260 -158 -260 -206 0 -51 21 -82 107 -159
43 -38 134 -121 203 -184 69 -64 190 -174 270 -246 191 -173 186 -167 173
-207 -6 -18 -12 -81 -13 -142 -1 -110 -4 -125 -17 -111 -12 12 -16 193 -5 225
10 29 8 33 -46 84 -31 30 -75 70 -97 88 -22 19 -49 42 -59 52 -11 9 -24 17
-30 17 -5 0 -20 10 -33 22 -29 27 -30 10 -2 -21 l21 -23 -18 -81 c-14 -60 -18
-119 -18 -222 1 -126 4 -151 33 -248 90 -309 308 -585 630 -799 88 -59 107
-78 88 -90 -35 -23 -114 13 -230 104 -37 30 -38 30 -59 12 -11 -11 -29 -38
-40 -61 -10 -23 -23 -45 -29 -48 -5 -4 -7 -15 -4 -24 3 -10 0 -23 -7 -29 -7
-5 -114 -24 -237 -42 -236 -33 -278 -44 -325 -88 -80 -75 -70 -221 18 -273 37
-22 50 -46 40 -73 -4 -11 -13 -15 -25 -11 -17 6 -16 3 4 -19 19 -21 89 -179
111 -252 8 -28 33 -50 87 -77 49 -24 56 -41 58 -135 1 -53 1 -54 29 -48 15 3
86 15 157 26 72 11 204 31 295 45 91 14 182 28 203 31 40 6 48 -7 26 -47 -8
-16 -7 -23 4 -32 8 -7 22 -41 31 -77 10 -36 30 -96 45 -135 25 -66 29 -72 80
-98 65 -32 127 -35 260 -12 70 12 571 92 841 134 518 80 571 92 615 141 17 19
17 22 -2 66 -20 45 -21 46 -32 25 -30 -56 -138 -79 -216 -47 -40 17 -43 26
-15 51 17 16 25 17 58 7 57 -17 112 2 112 39 0 21 -16 26 -111 32 -76 5 -101
18 -123 65 -30 63 13 133 90 148 43 8 116 -3 140 -21 18 -13 18 -14 -5 -39
-20 -21 -27 -23 -50 -15 -33 13 -90 3 -98 -18 -10 -26 26 -43 89 -43 72 0 115
-20 133 -63 8 -18 14 -26 15 -20 0 7 16 30 35 52 40 44 43 56 15 71 -29 15
-25 39 8 46 48 10 48 12 1 13 -38 1 -48 5 -57 25 -12 27 -11 28 53 40 34 7
646 96 658 96 4 0 7 15 7 33 0 18 11 72 25 120 33 114 46 218 43 349 -2 103
-3 107 -20 91 -10 -9 -20 -14 -23 -12 -2 3 -11 39 -20 80 -28 133 -66 184
-170 230 -58 26 -116 26 -309 -1 -130 -19 -160 -20 -166 -9 -5 7 -6 17 -4 21
3 4 -5 8 -16 8 -13 0 -24 8 -27 19 -4 17 -10 14 -37 -22 -39 -51 -79 -68 -103
-44 -16 15 -15 19 13 54 172 216 254 454 254 734 0 301 -101 554 -327 815 -23
26 -44 46 -47 44 -2 -3 -17 -75 -32 -160 l-27 -155 28 -40 c37 -55 74 -129 96
-194 30 -87 22 -92 -22 -11 -37 68 -101 166 -149 230 -17 23 -18 30 -5 95 30
154 135 833 135 873 0 63 -23 100 -78 125 -43 20 -68 22 -300 27 -219 4 -255
7 -265 21 -7 9 -26 37 -43 61 -39 56 -92 83 -164 83 -43 0 -88 -13 -206 -58
-82 -31 -156 -57 -163 -57 -7 0 -38 23 -69 50 -37 33 -74 56 -106 65 -58 17
-58 17 -111 1z m108 -47 c27 -14 87 -70 87 -81 0 -10 -188 -9 -250 1 l-45 7
65 42 c67 43 104 51 143 31z m604 -5 c36 -18 88 -83 75 -95 -4 -4 -94 -4 -200
-2 -106 3 -190 9 -185 14 13 12 236 98 256 99 11 0 35 -7 54 -16z m123 -154
c508 -9 557 -12 579 -28 14 -10 29 -25 35 -34 7 -12 -10 -140 -64 -465 -41
-246 -77 -452 -81 -457 -4 -5 -36 14 -71 41 -92 73 -180 122 -307 173 -72 29
-105 46 -91 48 26 4 40 39 40 97 0 120 -151 166 -269 82 -28 -20 -53 -37 -55
-37 -3 0 -19 13 -37 30 -47 42 -90 60 -146 60 -54 0 -102 -24 -130 -66 -17
-27 -23 -87 -10 -114 6 -12 -13 -20 -100 -41 -119 -29 -250 -82 -338 -135 -32
-19 -61 -34 -66 -34 -9 0 -2 777 7 837 10 64 20 66 299 59 138 -4 500 -11 805
-16z m-1176 -287 c-4 -137 -8 -249 -9 -251 -1 -1 -14 2 -29 8 -15 5 -58 13
-97 16 l-69 7 -19 -44 c-34 -78 -29 -128 14 -147 36 -16 48 -15 77 8 28 22 38
18 38 -17 0 -27 1 -27 35 -11 29 13 31 21 10 38 -22 18 -18 25 14 28 l29 2 -5
-147 -5 -148 -46 -47 c-26 -27 -51 -48 -57 -48 -5 0 -23 21 -39 48 -17 26
-115 182 -219 347 -105 165 -192 306 -194 315 -2 8 2 23 9 32 7 10 121 66 253
126 132 59 251 113 265 119 52 24 51 31 44 -234z m-569 -165 c21 -35 72 -115
113 -178 41 -63 123 -194 182 -291 l107 -177 -32 -51 c-18 -28 -46 -78 -61
-111 -16 -33 -32 -60 -35 -60 -11 0 -681 597 -711 634 -23 28 -23 59 1 80 27
25 383 226 391 221 4 -2 24 -32 45 -67z m1238 -225 c-7 -2 -19 -2 -25 0 -7 3
-2 5 12 5 14 0 19 -2 13 -5z m244 1 c-3 -3 -12 -4 -19 -1 -8 3 -5 6 6 6 11 1
17 -2 13 -5z m-159 -104 l3 -46 -93 -12 c-189 -23 -352 -86 -492 -188 l-78
-57 -41 23 c-23 13 -46 27 -51 31 -23 21 92 105 247 180 137 66 346 119 457
116 l45 -2 3 -45z m257 24 c202 -42 377 -116 495 -211 229 -183 359 -411 386
-673 18 -181 -80 -467 -198 -578 l-24 -22 -42 36 c-23 19 -42 40 -42 46 0 6
14 26 30 45 42 48 107 181 125 256 17 74 20 245 4 319 -25 119 -101 268 -176
349 -24 25 -43 50 -43 54 0 5 12 22 28 38 l27 29 -30 24 c-67 55 -194 144
-205 144 -6 0 -22 -13 -36 -29 l-25 -30 -72 34 c-81 39 -238 80 -339 90 l-68
7 0 50 0 50 68 -7 c37 -4 99 -13 137 -21z m898 -162 c10 -9 17 -29 17 -49 0
-34 0 -34 -42 -31 -42 3 -43 4 -46 42 -5 54 3 69 30 61 13 -4 31 -14 41 -23z
m-903 -8 c70 -15 220 -72 220 -83 0 -3 -13 -21 -28 -39 l-27 -33 -47 20 c-187
80 -390 91 -587 30 -75 -23 -71 -22 -71 -5 0 16 196 76 250 76 24 0 31 3 21 9
-22 14 -130 5 -214 -18 -86 -23 -97 -25 -97 -12 0 18 126 55 240 71 83 11 256
3 340 -16z m393 -56 c18 -12 51 -37 75 -56 l43 -34 -68 -71 c-36 -40 -70 -73
-74 -75 -11 -5 -149 100 -149 113 0 14 119 145 132 145 5 0 24 -10 41 -22z
m-1043 -35 c0 -5 -25 -23 -55 -41 -29 -18 -80 -54 -112 -79 -57 -47 -56 -35 2
20 32 30 145 107 157 107 5 0 8 -3 8 -7z m1640 -24 c12 -21 5 -75 -11 -84 -5
-4 -28 2 -51 13 -74 33 -90 76 -25 65 23 -3 37 0 46 11 18 21 28 20 41 -5z
m-1145 -27 l40 -7 -3 -45 c-1 -25 -5 -62 -8 -84 l-6 -38 -43 42 c-28 27 -47
57 -54 83 -15 60 -9 64 74 49z m-854 -29 c27 -14 49 -30 49 -35 0 -6 -15 -28
-34 -50 -110 -128 -173 -362 -147 -544 6 -39 13 -78 16 -86 5 -12 -7 -18 -51
-27 -32 -6 -60 -11 -64 -11 -4 0 -16 28 -25 63 -27 92 -25 258 4 361 26 92 78
209 117 263 32 43 76 93 82 93 2 0 26 -12 53 -27z m374 2 c-16 -14 -34 -25
-40 -25 -5 1 4 12 20 25 17 14 35 25 40 25 6 -1 -3 -12 -20 -25z m349 9 c4 -9
4 -19 2 -22 -10 -9 -36 8 -36 23 0 20 26 19 34 -1z m246 -12 c0 -11 -7 -41
-15 -67 -15 -51 -13 -65 10 -65 9 0 21 21 30 53 25 86 23 85 108 48 42 -18 86
-44 98 -57 12 -13 28 -24 36 -24 7 0 13 -3 13 -7 0 -13 -74 -83 -87 -83 -8 0
-13 -12 -13 -30 0 -16 4 -30 8 -30 12 0 83 53 106 79 32 36 36 34 114 -70 23
-31 42 -60 42 -66 0 -6 -34 -23 -75 -38 -70 -25 -77 -26 -98 -11 -82 59 -119
79 -149 81 -15 2 -40 11 -54 21 -15 11 -41 27 -58 38 -17 10 -39 26 -48 36 -9
10 -23 20 -30 23 -10 3 -9 11 4 38 9 19 22 60 28 92 11 54 30 79 30 39z m-330
-41 c0 -37 -9 -67 -37 -120 -20 -39 -41 -71 -48 -71 -16 0 -156 141 -149 151
13 22 173 87 217 88 14 1 17 -8 17 -48z m1421 -35 c9 -18 7 -30 -5 -55 l-17
-31 -37 15 c-37 15 -72 48 -72 67 0 6 16 7 38 3 29 -5 42 -2 52 9 17 22 29 20
41 -8z m-508 -115 c70 -106 116 -235 117 -323 0 -27 -4 -38 -15 -38 -9 0 -12
6 -9 15 4 9 0 15 -10 15 -9 0 -16 5 -16 11 0 5 5 7 10 4 12 -7 6 55 -8 82 -5
10 -7 23 -5 30 2 6 -3 24 -12 40 l-16 28 6 -50 c19 -167 19 -165 -2 -165 -16
0 -21 11 -30 58 -16 85 -50 166 -99 238 -49 71 -53 90 -24 99 11 3 25 15 31
26 14 27 26 16 82 -70z m-663 -66 c41 -32 125 -81 186 -110 129 -61 155 -88
162 -170 10 -118 -75 -181 -207 -154 -31 6 -67 13 -81 14 -14 2 -28 4 -31 4
-4 1 -24 17 -45 37 -35 31 -40 33 -49 18 -43 -72 -132 -127 -204 -127 -128 2
-141 5 -166 38 -60 78 -38 159 78 288 94 105 141 173 168 248 l22 60 46 -44
c25 -25 80 -71 121 -102z m-489 87 c24 -21 61 -48 82 -61 20 -12 37 -27 37
-32 0 -6 5 -7 10 -4 27 16 5 -16 -34 -52 -28 -26 -49 -37 -57 -33 -8 5 -43 16
-79 26 -36 9 -82 25 -103 33 l-38 16 31 48 c16 26 36 50 44 53 9 3 50 -19 96
-50 44 -31 85 -56 90 -56 23 0 5 21 -65 76 -41 32 -75 62 -75 66 0 16 18 7 61
-30z m1709 -47 c0 -29 -20 -75 -32 -75 -31 0 -98 57 -98 83 0 4 19 5 43 2 33
-5 46 -3 56 9 17 20 31 11 31 -19z m-2607 -75 c40 -32 43 -57 11 -91 -35 -37
-59 -37 -79 1 -20 40 -19 60 7 87 26 28 29 28 61 3z m2637 -59 c0 -15 -9 -40
-20 -54 l-21 -26 -35 21 c-33 20 -62 64 -49 76 3 4 20 1 38 -6 26 -10 34 -9
46 3 24 24 41 18 41 -14z m-1887 3 c54 -18 64 -39 15 -29 -51 11 -78 23 -78
35 0 14 8 13 63 -6z m1202 -44 c6 -9 -39 -23 -112 -35 -100 -16 -11 23 99 44
4 0 9 -3 13 -9z m-1172 -38 c43 -8 76 -17 74 -21 -2 -3 -12 -25 -23 -48 -10
-24 -26 -43 -34 -44 -8 0 -40 -4 -70 -8 -75 -11 -83 -3 -75 73 9 73 12 80 34
70 9 -4 51 -14 94 -22z m-837 -37 c19 -12 24 -12 40 0 29 22 44 18 44 -13 0
-18 -10 -38 -28 -55 l-28 -27 -32 28 c-56 48 -52 107 4 67z m2034 -65 c0 -79
1 -79 -90 -59 -53 11 -51 10 -64 86 -6 37 1 39 97 42 l57 1 0 -70z m595 54
c21 -14 26 -14 48 1 22 14 25 14 30 0 12 -30 -23 -85 -54 -85 -22 0 -69 55
-69 81 0 23 13 24 45 3z m-1860 -104 c-3 -5 -17 -10 -31 -10 -13 0 -24 5 -24
10 0 6 14 10 31 10 17 0 28 -4 24 -10z m-665 -37 c0 -24 -28 -83 -40 -83 -19
0 -71 44 -76 65 -8 33 -1 40 26 25 19 -10 27 -9 49 8 31 23 41 20 41 -15z
m2515 11 c16 -11 34 -14 55 -9 26 6 30 4 30 -15 0 -20 -43 -70 -61 -70 -16 0
-59 63 -59 86 0 28 3 29 35 8z m-477 -57 c-11 -51 -61 -164 -65 -150 -2 6 5
33 16 60 10 27 22 70 26 95 5 32 11 45 20 42 10 -4 10 -15 3 -47z m-186 17
c32 -9 58 -21 58 -25 0 -12 -2 -12 -76 8 -35 9 -64 21 -64 25 0 12 17 10 82
-8z m263 -31 c-6 -42 -43 -150 -44 -129 -1 7 26 133 35 164 2 6 6 12 10 12 3
0 3 -21 -1 -47z m-1365 21 c0 -6 -55 -29 -92 -38 -44 -10 -35 19 10 31 42 12
82 16 82 7z m1069 -54 c30 -11 59 -24 64 -29 9 -9 -18 -68 -51 -110 l-19 -24
-57 38 c-67 45 -70 48 -55 77 13 26 49 68 58 68 4 0 31 -9 60 -20z m-1001 -50
c19 -27 31 -53 28 -58 -3 -5 -24 -22 -47 -38 l-42 -29 -29 35 c-36 43 -60 88
-56 102 5 13 63 36 93 37 13 0 32 -17 53 -49z m-776 17 c5 -26 -8 -84 -22 -92
-15 -9 -77 21 -89 43 -16 30 -14 32 22 32 21 0 41 8 52 20 23 26 32 25 37 -3z
m2506 -17 c36 0 36 0 20 -35 -17 -37 -56 -44 -79 -14 -19 25 -31 68 -22 82 3
5 15 -1 27 -12 13 -12 36 -21 54 -21z m-1176 -45 c25 -33 55 -69 67 -79 11
-11 21 -22 21 -26 0 -8 -129 -30 -175 -30 -40 0 -40 1 -20 39 8 16 19 51 25
77 19 91 21 97 29 88 4 -5 28 -36 53 -69z m-975 -55 c23 -45 66 -109 94 -142
l52 -59 -27 -28 c-14 -15 -26 -32 -26 -38 0 -12 154 -132 220 -172 l35 -21 31
37 31 37 69 -31 c38 -17 103 -39 144 -48 41 -9 88 -21 103 -26 53 -16 201 -22
277 -10 129 20 242 52 326 90 91 43 186 101 226 139 l27 25 40 -38 c22 -22 38
-42 35 -46 -12 -20 -175 -103 -223 -114 -31 -7 -67 -16 -80 -21 -17 -5 -22 -4
-17 4 4 7 3 12 -3 12 -5 0 -12 -4 -16 -10 -3 -5 -12 -7 -20 -3 -8 3 -15 0 -15
-5 0 -6 -8 -11 -17 -11 -23 0 -133 -21 -153 -28 -67 -26 -328 -24 -417 3 -17
5 -23 2 -23 -10 0 -9 -7 -27 -15 -40 -15 -23 -17 -23 -83 -10 -199 39 -331
108 -490 258 -123 117 -273 340 -246 366 10 9 94 29 109 26 5 -2 29 -40 52
-86z m1350 -52 c9 -10 13 -21 9 -25 -4 -4 -32 19 -64 51 l-57 59 47 -33 c27
-18 55 -42 65 -52z m-1641 26 c4 -15 3 -39 -3 -53 -7 -21 -15 -26 -37 -24 -28
2 -76 37 -76 56 0 5 13 6 29 2 24 -5 33 -1 48 19 23 32 31 32 39 0z m911 -6
l42 -14 -31 -64 c-16 -36 -31 -66 -33 -68 -4 -4 -124 58 -129 67 -3 4 16 31
41 60 31 35 49 49 57 42 6 -5 30 -15 53 -23z m1445 12 c8 -12 24 -20 40 -20
35 0 35 -13 1 -40 -32 -25 -43 -22 -66 17 -27 46 -3 88 25 43z m-831 -27 c13
-21 29 -44 36 -51 20 -21 17 -25 -45 -59 -61 -34 -82 -31 -82 8 0 10 -3 19 -7
21 -5 2 -16 17 -25 34 -17 30 -17 32 0 38 9 4 33 15 52 26 19 10 38 19 42 20
3 0 17 -17 29 -37z m-501 -25 c0 -21 -53 -148 -62 -148 -4 0 -8 4 -8 8 0 7 26
89 45 140 6 16 25 16 25 0z m330 -10 c0 -7 6 -24 13 -38 17 -33 39 -96 31 -87
-4 4 -13 2 -20 -4 -8 -6 -21 -9 -29 -5 -8 3 -15 0 -15 -6 0 -6 -6 -5 -16 3
-12 9 -13 14 -4 17 9 3 9 6 0 12 -7 5 -14 16 -15 27 -1 10 -7 28 -13 40 -19
35 -15 46 18 41 17 -3 30 -1 30 4 0 4 5 8 10 8 6 0 10 -6 10 -12z m-670 -73
c38 -28 69 -53 69 -56 1 -11 -129 -164 -138 -164 -15 0 -141 94 -147 110 -6
15 124 167 139 162 5 -1 39 -25 77 -52z m453 -5 c-3 -76 -5 -80 -48 -70 -20 5
-39 11 -42 14 -11 11 19 105 35 108 50 11 57 4 55 -52z m112 -15 c5 -42 4 -57
-4 -50 -6 6 -12 37 -15 69 -5 74 10 60 19 -19z m-1175 0 c0 -53 -8 -66 -39
-59 -47 12 -81 54 -43 54 10 0 29 11 42 25 28 30 40 24 40 -20z m2266 -31 c-9
-24 -49 -13 -60 17 -5 15 -6 34 -3 42 5 13 12 11 38 -14 20 -18 29 -35 25 -45z
m-2166 -115 c0 -15 -3 -30 -8 -33 -8 -5 -72 20 -72 28 0 3 12 18 28 33 23 25
29 27 40 14 6 -8 12 -27 12 -42z m2076 -4 c-3 -9 -14 -15 -23 -13 -20 4 -28
30 -18 55 5 15 8 14 27 -4 13 -13 18 -28 14 -38z m-1968 -90 c11 -24 16 -65 8
-65 -6 0 -66 22 -66 24 0 11 33 66 39 66 4 0 13 -11 19 -25z m1867 -16 c8 -11
-36 -49 -56 -49 -29 0 -33 20 -9 45 20 22 53 24 65 4z m748 -93 c44 -22 76
-63 84 -109 l5 -34 -53 -7 c-50 -7 -54 -6 -77 23 -41 53 -122 36 -122 -25 0
-55 26 -73 166 -113 95 -27 145 -65 173 -130 68 -159 -22 -283 -195 -269 -95
8 -159 59 -186 150 -14 48 -8 54 62 63 l55 7 15 -43 c17 -51 52 -69 98 -53 24
9 27 14 26 57 0 65 -26 89 -122 116 -147 43 -197 84 -223 182 -24 90 15 167
99 194 59 18 145 14 195 -9z m-2472 -49 c-5 -5 -18 -7 -28 -3 -15 6 -15 8 -3
16 10 6 11 10 3 10 -7 0 -10 7 -7 15 5 13 10 12 25 -7 12 -14 16 -25 10 -31z
m171 -68 c39 -28 24 -46 -26 -29 -40 13 -41 15 -23 35 16 18 14 19 49 -6z
m1864 -10 c31 -15 48 -32 63 -63 34 -69 26 -86 -40 -86 -21 0 -29 5 -29 18 0
31 -29 62 -58 62 -44 0 -56 -13 -49 -55 9 -57 31 -81 89 -100 134 -44 172 -82
199 -203 11 -45 10 -57 -4 -88 -41 -85 -210 -99 -261 -22 -16 25 -43 115 -35
121 2 2 23 7 45 11 40 6 42 5 48 -26 12 -63 64 -88 100 -49 16 17 16 23 2 77
-17 65 -18 66 -103 94 -120 41 -160 88 -170 198 -4 48 -2 61 17 84 38 49 118
60 186 27z m-279 -31 c6 -7 13 -25 15 -40 6 -30 2 -32 -67 -43 -79 -13 -76 -7
-51 -88 15 -47 27 -72 37 -71 8 0 33 4 56 7 41 7 42 6 53 -29 7 -19 10 -37 8
-40 -3 -2 -26 -8 -52 -13 -26 -5 -50 -11 -53 -15 -3 -3 4 -44 17 -91 l23 -85
61 6 62 6 11 -36 c11 -34 10 -38 -10 -46 -34 -14 -180 -31 -188 -23 -4 5 -11
28 -17 53 -6 25 -38 150 -71 279 -33 129 -58 237 -55 240 4 5 60 16 205 40 4
1 11 -5 16 -11z m-365 -288 c31 -124 60 -236 63 -249 5 -20 10 -22 38 -18 124
21 115 22 126 -19 6 -21 9 -40 7 -42 -6 -5 -177 -32 -208 -32 -31 0 -26 -15
-113 337 -31 128 -54 237 -50 243 4 6 23 10 43 8 l36 -3 58 -225z m-186 176
c7 -42 0 -56 -30 -56 -12 0 -25 -2 -28 -5 -3 -3 21 -112 53 -243 33 -130 57
-242 55 -248 -3 -7 -21 -14 -40 -16 -35 -4 -36 -3 -50 47 -8 27 -35 139 -62
248 l-47 197 -28 0 c-24 0 -30 6 -38 37 -6 20 -9 39 -7 41 5 4 159 29 193 31
18 1 23 -6 29 -33z m-262 -22 c18 -47 2 -74 -45 -74 -10 0 -19 -6 -19 -12 0
-7 25 -119 55 -248 29 -129 51 -238 47 -241 -14 -14 -70 -20 -77 -9 -7 12 -77
302 -96 400 -17 90 -22 98 -60 92 -35 -5 -49 8 -49 50 0 23 5 28 33 33 154 29
203 31 211 9z m-324 -50 c33 -20 56 -57 65 -105 6 -35 5 -36 -25 -43 -52 -10
-58 -8 -65 27 -4 17 -12 38 -17 45 -11 13 -46 16 -72 6 -20 -8 -21 -62 -2
-108 11 -27 24 -36 77 -55 129 -46 160 -85 175 -216 5 -42 3 -54 -17 -79 -46
-58 -148 -75 -210 -33 -25 16 -39 38 -54 79 -10 32 -16 60 -13 63 4 4 24 9 46
12 40 5 41 5 52 -36 14 -54 47 -72 85 -47 28 19 28 16 4 107 -10 38 -22 47
-119 80 -30 11 -64 29 -77 41 -44 42 -70 190 -39 230 35 47 150 65 206 32z
m-302 -121 c88 -421 87 -411 69 -448 -29 -62 -132 -92 -196 -58 -60 31 -69 54
-117 298 -58 296 -57 268 -11 276 33 5 40 3 48 -15 4 -12 27 -115 50 -231 22
-115 47 -220 55 -232 18 -28 55 -30 78 -4 15 17 15 23 -3 102 -29 125 -71 346
-71 373 0 25 13 32 56 35 19 1 23 -10 42 -96z m-753 45 c3 -13 6 -39 8 -58 2
-34 2 -34 -50 -43 -61 -10 -60 -5 -37 -127 40 -222 71 -426 65 -431 -8 -9
-142 -31 -148 -25 -3 3 -23 112 -44 243 -54 333 -46 308 -94 308 -40 0 -40 0
-49 47 -5 27 -7 50 -4 53 6 7 278 52 320 54 21 1 29 -4 33 -21z m314 -14 c57
-12 86 -52 104 -146 21 -102 21 -148 2 -174 -8 -10 -15 -25 -15 -33 0 -8 25
-59 56 -113 31 -54 54 -101 51 -104 -2 -3 -24 -6 -47 -7 l-43 -2 -55 98 c-45
80 -59 97 -78 97 -29 0 -30 -14 -7 -128 18 -94 15 -102 -44 -102 -29 0 -32 3
-42 48 -23 109 -92 525 -88 535 2 7 35 17 73 23 89 15 95 15 133 8z m1640
-557 c77 -51 110 -161 72 -239 -26 -54 -72 -82 -162 -97 -98 -17 -94 -19 -114
57 -9 37 -28 105 -40 152 -38 140 -40 133 30 147 93 18 166 12 214 -20z m-395
-48 c54 -43 71 -115 39 -169 -16 -28 -16 -29 30 -87 l47 -58 -36 -9 c-34 -8
-37 -7 -86 48 -33 38 -57 56 -73 56 -29 0 -34 -14 -24 -60 15 -62 12 -77 -18
-83 -16 -3 -30 -3 -32 -1 -2 2 -24 81 -48 176 -27 109 -40 175 -34 181 14 14
75 24 147 26 48 1 67 -3 88 -20z m-377 -121 c73 -107 153 -239 153 -251 0 -18
-66 -5 -89 17 -25 22 -29 23 -92 13 -62 -9 -68 -12 -83 -43 -12 -25 -22 -34
-41 -34 -21 0 -25 5 -25 31 0 30 17 150 41 284 21 119 46 115 136 -17z m-314
30 c32 -12 32 -16 7 -46 -16 -19 -25 -21 -58 -16 -69 11 -132 -38 -132 -102 0
-43 38 -96 82 -112 34 -13 41 -13 79 7 38 20 43 21 65 6 32 -21 30 -29 -12
-61 -29 -23 -46 -27 -93 -27 -173 0 -261 186 -148 309 54 58 128 73 210 42z"/>
<path d="M2170 4130 c-35 -39 -60 -74 -56 -77 3 -4 31 21 62 55 31 34 59 62
62 62 4 -1 29 -30 57 -65 44 -58 65 -77 65 -59 0 6 -119 154 -125 154 -1 0
-31 -32 -65 -70z"/>
<path d="M2092 3983 c-8 -3 13 -34 59 -85 l72 -79 74 73 c40 40 73 78 73 85 0
10 -31 13 -132 12 -73 0 -139 -3 -146 -6z"/>
<path d="M1578 3974 c-27 -13 -48 -30 -48 -37 0 -22 93 -147 109 -147 9 0 39
13 66 28 62 33 71 68 29 101 -15 12 -36 35 -46 51 -22 37 -46 38 -110 4z m79
-30 c5 -14 -44 -47 -57 -39 -17 10 -11 43 8 48 25 7 45 3 49 -9z m60 -60 c12
-32 -63 -57 -84 -28 -12 16 -10 19 14 30 39 17 63 17 70 -2z"/>
<path d="M1183 3683 c-9 -23 4 -168 17 -193 27 -51 111 -55 145 -7 14 20 14
20 25 -7 5 -15 10 -36 10 -47 0 -24 11 -24 60 1 43 22 59 40 35 40 -9 0 -35
10 -58 22 l-42 21 35 12 c21 7 40 22 48 39 12 23 11 31 -5 59 -22 37 -66 56
-138 57 -27 0 -67 4 -88 9 -31 7 -39 6 -44 -6z"/>
<path d="M3264 3258 c-8 -12 42 -58 64 -58 24 0 25 30 1 50 -27 22 -54 26 -65
8z"/>
<path d="M3211 3196 c-9 -11 -3 -20 31 -45 46 -34 53 -36 64 -19 4 6 -5 21
-22 35 -47 39 -61 44 -73 29z"/>
<path d="M3491 2844 c0 -11 3 -14 6 -6 3 7 2 16 -1 19 -3 4 -6 -2 -5 -13z"/>
<path d="M2177 2173 c-13 -12 -7 -22 30 -48 43 -29 66 -32 61 -9 -4 18 -81 67
-91 57z"/>
<path d="M2130 2085 c-18 -21 14 -55 50 -55 39 0 44 24 10 49 -35 25 -43 26
-60 6z"/>
<path d="M1787 1283 c-13 -3 -17 -11 -14 -26 3 -12 11 -51 17 -87 18 -104 16
-102 58 -94 61 11 67 22 52 101 -19 106 -39 125 -113 106z"/>
<path d="M3352 762 c-10 -7 -7 -29 11 -107 13 -55 29 -101 36 -103 25 -8 84
10 107 33 42 42 26 132 -30 169 -26 17 -102 22 -124 8z"/>
<path d="M3000 711 c-26 -7 -29 -27 -9 -78 8 -21 13 -23 46 -17 48 8 63 20 63
49 0 44 -41 63 -100 46z"/>
<path d="M2670 583 c0 -10 -3 -35 -6 -55 -6 -36 -5 -38 20 -38 15 0 36 5 47
10 19 11 18 13 -11 55 -33 47 -50 57 -50 28z"/>
<path d="M4618 953 c7 -3 16 -2 19 1 4 3 -2 6 -13 5 -11 0 -14 -3 -6 -6z"/>
<path d="M4505 940 l-40 -7 35 -1 c19 0 46 4 60 8 32 10 2 10 -55 0z"/>
<path d="M4408 923 c7 -3 16 -2 19 1 4 3 -2 6 -13 5 -11 0 -14 -3 -6 -6z"/>
<path d="M4078 873 c6 -2 18 -2 25 0 6 3 1 5 -13 5 -14 0 -19 -2 -12 -5z"/>
<path d="M1528 493 c7 -3 16 -2 19 1 4 3 -2 6 -13 5 -11 0 -14 -3 -6 -6z"/>
<path d="M1468 483 c6 -2 18 -2 25 0 6 3 1 5 -13 5 -14 0 -19 -2 -12 -5z"/>
<path d="M1428 473 c7 -3 16 -2 19 1 4 3 -2 6 -13 5 -11 0 -14 -3 -6 -6z"/>
<path d="M3951 445 c-16 -18 -19 -25 -9 -25 8 0 20 11 26 25 14 31 13 31 -17
0z"/>
</g>
</svg>
